<?xml version="1.0" encoding="utf-8"?>
<!-- Generator: Adobe Illustrator 15.0.2, SVG Export Plug-In . SVG Version: 6.00 Build 0)  -->
<!DOCTYPE svg PUBLIC "-//W3C//DTD SVG 1.1//EN" "http://www.w3.org/Graphics/SVG/1.1/DTD/svg11.dtd">
<svg version="1.1" id="Layer_1" xmlns="http://www.w3.org/2000/svg" xmlns:xlink="http://www.w3.org/1999/xlink" x="0px" y="0px"
	 width="1604px" height="1568px" viewBox="0 -131 1604 1568" enable-background="new 0 -131 1604 1568" xml:space="preserve">
<g>
	<path id="Uneven_Swamp_Area" fill="none" stroke="#FFFFFF" stroke-width="6" d="M495,210c5.486,3.693-2.013,15.324-2,23
		c4.029,2.971,7.679,6.321,9,12c10.106,0.773,17.161-1.506,27-1c3.386,3.638,9.108,6.405,13,11c4.838,5.713,12.157,18.287,12,26
		c-0.078,3.816-3.42,6.057-3,10c0.583,5.475,7.056,10.449,8,16c1.028,6.044-3.838,16.466-3,25c1.837,18.703,22.997,28.05,22,40
		c-0.641,7.682-12.169,14.405-14,21c-6.328,22.794,10.524,33.069,14,45c6.868,23.574-9.001,37.846-23,46
		c-7.831-0.502-11.373-5.293-17-8c-21.955,4.045-24.654,27.346-39,39c-19.173-2.84-27.495,5.172-36,13
		c-11.982,0.493-21.205-3.532-32-9c-7.597-3.848-14.548-11.237-21-11c-6.451,0.237-13.314,9.273-23,12
		c-3.635,1.023-8.712-0.096-12,1c-7.515,2.505-12.295,11.212-13,17c-16.945-8.721-34.579-16.754-42-35
		c-3.117,1.877-10.746,1.16-14,0c-2.58-7.357,1.457-15.328-9-15c-1.681-6.652-6.855-9.813-7-18c-37.163,1.504-47.012-36.23-44-74
		c1.761-22.081,11.526-65.642,24-77c8.755-7.972,26.118-11.701,34-11c5.686,0.505,11.824,5.228,18,8c6.343,2.848,14.038,4.152,19,7
		c13.93,7.994,20.452,23.648,28,38c21.451-5.204,51.7-3.652,64,9c9.382-3.041,19.871-11.554,32-13c4.212-0.502,8.747,1.271,13,1
		c17.95-1.142,37.25-13.171,40-29c0.969-5.58-1.375-15.474-1-24c0.907-20.639-3.164-29.368-14-38c-15.43-1.237-24.276-9.057-31-19
		c0.082-11.585,0.105-23.229,4-31C481.351,212.942,484.502,206.247,495,210z"/>
	<path id="Soaking_Savanna" fill="none" stroke="#FFFFFF" stroke-width="6" d="M297,488c10.457-0.328,6.42,7.643,9,15
		c3.254,1.16,10.883,1.877,14,0c7.421,18.246,25.055,26.279,42,35c0.139,10,10.795,15.026,12,25c1.168,9.669-5.672,20.174-3,31
		c1.197,4.849,7.28,9.84,8,15c0.938,6.721-3.939,13.296-2,20c1.27,4.392,5.86,5.92,9,9c-0.938,9.735,6.67,15.82,8,20
		c-4.825,18.509-38.51,8.157-45,25c2.821,12.227-10.835,11.969-12,23c1.754,6.084,8.508,4.704,12,8c17.852,16.854,0.898,47.401,3,74
		c6.653,7.384,15.145,16.136,14,25c-1.416,10.964-20.318,17.279-15,35c19.524-1.925,43.584,15.41,53-3c0.477-6.887-4.348-7.938-3-13
		c1.564-5.876,10.252-5.697,13-11c-0.296,2.63,3.88,0.787,3,4c4.001,18.938,5.23,43.106,12,60c4.205,10.492,14.391,19.02,19,32
		c2.352,6.624,1.54,14.633,7,20c0,1.667,0,3.333,0,5c-35.954,0.501-75.143,0.547-99-17c-5.9-4.339-13.107-15.705-20-17
		c-16.206-3.044-19.821,12.548-29,19c-19.46,13.679-60.863,17.104-88,23c-14.859,3.229-23.217,11.25-39,10
		c-20.622-1.633-40.348-9.967-58-22c-17.105-34.585-0.51-98.776,23-117c1.748-8.971-3.19-15.666-4-25
		c-2.718-31.319,18.423-59.491,7-86c-4.911-11.398-17.357-16.064-27-25c-10.024-9.288-10.255-21.341-16-34
		c-2.849-6.278-9.551-9.832-12-15c-9.062-19.121,3.674-40.499-4-62c-3.856-10.804-15.559-19.061-16-35
		c-0.576-20.795,16.362-25.481,22-42c13.712-11.955,32.251-19.082,44-33c2.222-22.136-5.435-42.633,4-57
		c8.315-12.662,38.562-15.696,52-5c4.365,3.474,5.919,10.688,10,16c3.267,4.252,10.149,7.439,15,13c5.182,5.94,7.753,13.983,12,20
		C246.671,471.787,268.435,481.806,297,488z"/>
	<path id="Arch_House_Area" fill="none" stroke="#FFFFFF" stroke-width="6" d="M555,484c19.573,15.427,37.331,32.669,47,58
		c2.296,5.49,4.232,7.336,4,12c-0.439,8.809-11,14.911-11,23c0,13.953,15.877,14.44,18,29c3.331,10.32-5.236,17.723-9,28
		c-5.368,14.658-17.54,30.489-14,52c0.651,3.958,6.833,9.585,7,16c0.305,11.708-10.629,14.878-20,19c-7.54,3.316-15.946,6.345-24,10
		c-4.878,2.214-8.813,6.631-14,9c-33.828,15.448-75.692,19.083-96,47c-2.767,13.73,12.884,18.771,10,29
		c-2.843,10.082-21.907,6.591-36,9c0.88-3.213-3.296-1.37-3-4c-2.748,5.303-11.436,5.124-13,11c-1.348,5.063,3.477,6.113,3,13
		c-9.416,18.41-33.476,1.075-53,3c-5.318-17.721,13.584-24.036,15-35c1.145-8.864-7.347-17.616-14-25
		c-2.102-26.599,14.852-57.146-3-74c-3.492-3.296-10.246-1.916-12-8c1.165-11.031,14.821-10.773,12-23
		c6.49-16.843,40.175-6.491,45-25c-1.33-4.18-8.938-10.265-8-20c-3.14-3.08-7.73-4.608-9-9c-1.939-6.704,2.938-13.279,2-20
		c-0.72-5.16-6.803-10.151-8-15c-2.672-10.826,4.168-21.331,3-31c-1.205-9.974-11.861-15-12-25c0.705-5.788,5.485-14.495,13-17
		c3.288-1.096,8.365,0.023,12-1c9.686-2.727,16.549-11.763,23-12c6.452-0.237,13.403,7.152,21,11c10.795,5.468,20.018,9.493,32,9
		c8.505-7.828,16.827-15.84,36-13c14.346-11.654,17.045-34.955,39-39C543.627,478.707,547.169,483.498,555,484z"/>
	<path id="Wooded_Lands" fill-rule="evenodd" clip-rule="evenodd" fill="none" stroke="#FFFFFF" stroke-width="6" d="M834,641
		c18.406,11.849,48.303,1.234,61,17c0,0.667,0,1.333,0,2c8.597,6.924,18,13.168,23,24c4.709,10.201,4.858,17.317,11,23
		c7.553,6.989,17.591,6.214,24,15c8.115,11.125,8.121,28.485,5,45c21.759,16.534,6.363,39.301-25,32
		c-5.771,9.229-16.784,13.216-17,28c0.651,4.682,7.799,2.867,7,9c-0.493,1.158-5.228-1.179-4,4c-17.042,11.612-38.394,2.349-50-8
		c-9.71,1.073-14.823,10.104-22,8c-7.121,4.565-6.459,11.597-10,22c-3.125,9.184-11.686,17.206-13,24
		c-3.408,17.617,5.648,32.781,1,52c-18.23,1.423-31.225-12.308-51-9c-1.812,6.234-0.664,12.79-5,20c-4.868,2.466-12.822,1.844-17,5
		c-15.174-8.021-24.628-28.632-48-23c-5.229,1.26-6.683,8.621-11,11c-11.367,6.264-34.885-1.13-52,4c-6.139,1.84-10.421,8.957-16,11
		c-16.502,6.043-37.93-3.679-55,0c-5.945,12.388-12.596,16.001-25,25c-11.487,8.334-15.867,12.569-33,14
		c-13.146,1.098-26.49,8.451-33,7c-13.907-3.101-8.796-26.328-11-41c-1.63-10.85-7.658-19.387-13-25c-5.46-5.367-4.648-13.376-7-20
		c-4.609-12.98-14.795-21.508-19-32c-6.77-16.894-7.999-41.063-12-60c14.093-2.409,33.157,1.082,36-9
		c2.884-10.229-12.767-15.27-10-29c20.308-27.917,62.172-31.552,96-47c5.188-2.369,9.122-6.786,14-9c8.054-3.655,16.46-6.684,24-10
		c9.371-4.122,20.305-7.292,20-19c-0.167-6.415-6.349-12.042-7-16c-3.54-21.511,8.632-37.342,14-52c3.764-10.277,12.331-17.68,9-28
		c18.487-4.022,38.279,3.787,56,2c5.155-0.52,10.094-3.367,15-3c8.41,0.63,15.051,7.813,23,7c6.242,8.425,13.061,16.272,18,26
		C756.563,647.329,803.174,637.854,834,641z"/>
	<path id="Bastion_Area" fill="none" stroke="#FFFFFF" stroke-width="6" d="M825,938c8.528,7.049,25.974,8.55,40,7
		c1.416,2.986-0.547,3.644,3,5c13.338,4.329,24.105,11.229,36,17c10.451,22.7,36.942,34.186,62,39c14.382,9.952,23.89,24.777,30,43
		c-0.151,18.849-18.855,19.145-35,22c-4.213,6.001-8.736,12.83-15,14c-15.482,2.186-26.286,9.047-32,21
		c-16.64-4.639-34.268,10.109-34,23c0.11,5.319,6.598,9.768,7,15c1.311,17.037-29.45,29.227-33,54c-0.935,6.524,0.871,12.805-1,19
		c-2.049,6.785-7.938,15.279-11,19c-11.365,13.805-28.857,13.696-43,21c-9.375,4.842-13.72,22.084-27,16
		c-6.366-6.766-5.524-22.462-3-33c-10.401-6.211-11.271-16.334-20-24c-8.597-7.55-22.284-9.011-30-17
		c-8.492-8.793-16.105-37.625-15-52c1.044-13.588,14.328-17.692,20-28c4.302-7.818,6.779-22.786,5-35
		c-9.165-9.539-26.221-11.7-31-25c-2.967-8.256-4.079-26.371,0-38c3.241-9.24,16.756-17.117,25-23
		c16.794-11.985,29.907-19.622,29-44c4.178-3.156,12.132-2.534,17-5c3.122-7.01,4.813-12.335,4-19
		C791.817,923.902,806.771,939.94,825,938z"/>
	<path id="Shattered_Lands" fill="none" stroke="#FFFFFF" stroke-width="6" d="M1133,948c6.617,1.716,11.125,5.541,17,8
		c14.419,16.964,12.68,54.85,17,88c0.842,6.462,3.445,12.789,4,18c2.849,26.748-4.747,43.691-15,57
		c-12.489,16.211-33.317,22.212-60,21c-27.638-1.256-57.317,5.52-80,3c-40.809-4.531-60.686-22.105-70-58
		c6.264-1.17,10.787-7.999,15-14c16.145-2.855,34.849-3.151,35-22c-6.11-18.223-15.618-33.048-30-43
		c17.054,0.052,22.855-11.18,39-11c6.759,0.075,13.708,4,22,4c8.771,0,22.045-6.415,30-8c24.462-4.873,46.445-4.099,60-13
		C1125.765,972.244,1131.073,959.205,1133,948z"/>
	<path id="Beep_Beep_Sheep_Area" fill="none" stroke="#FFFFFF" stroke-width="6" d="M486,1161c8.605-6.634,4.249-25.758,1-35
		c-9.573-7.042-13.994-23.206-25-23c-6.469-6.048,5.207-20.787,13-22c19.836-3.086,33.222,15.475,49,21
		c17.043,5.968,37.446,4.725,55,9c20.564,5.008,38.087,9.915,52,12c13.706,17.844,2.547,38.335,14,53
		c10.146,12.991,30.22,20.563,35,34c2.693,7.572,3.985,23.354,1,31c-5.706,14.618-50.405,21.903-71,22
		c-33.099,0.156-49.859-10.526-64-32c-4.241-6.439-5.916-15.609-10-23c-5.97-10.802-15.675-18.597-17-34
		C510.403,1167.264,497.843,1164.49,486,1161z"/>
	<path id="Matchstick_Forest" fill="none" stroke="#FFFFFF" stroke-width="6" d="M462,1103c11.006-0.206,15.427,15.958,25,23
		c3.249,9.242,7.605,28.366-1,35c-9.597,17.181-30.088,22.683-31,43c-0.392,8.724,6.998,19.96,8,32c0.465,5.586-0.612,11.721,0,17
		c3.353,28.901,19.582,59.563,9,85c-6.442,15.485-25.246,25.229-38,36c-9.332,7.882-17.392,14.145-33,15
		c-10.448,0.572-24.218-0.784-35-3c-5.027-1.033-9.747-4.783-15-6c-4.757-1.102-9.806,0.166-14-1c-6.071-1.688-15.145-6.583-19-9
		c-6.265-3.928-10.39-14.256-18-17c-13.673-4.931-32.925,4.02-48-4c-14.719-7.831-5.205-32.014-17-44
		c-14.471-14.705-36.525,5.535-50,7c-13.459,1.464-32.706-8.645-35-22c-2.486-14.479,5.183-27.026,13-33
		c10.701-8.177,28.614-5.531,36-17c1.784-2.77,0.973-7.243,3-11c2.445-4.532,8.19-8.152,11-13c2.945-5.08,6.629-10.88,8-15
		c3.008-9.04,2.65-18.18,6-24c5.119-8.893,19.593-13.677,23-21c6.744-14.496,1.96-45.729,29-40c10.504,2.226,18.895,28.021,27,34
		c13.682-0.163,19.704,13.006,32,15c10.993,1.782,24.025-4.042,35-6c10.648-1.899,25.889-4.701,29-11c2.333-4.725-1.164-10.855,0-16
		C406.64,1111.486,441.848,1110.097,462,1103z"/>
	<path id="Loop_River_Wetlands" fill-rule="evenodd" clip-rule="evenodd" fill="none" stroke="#FFFFFF" stroke-width="6" d="
		M1142.5,232.5c-3.355,11.308,0.066,17.633-3,27c-2.721,8.31-12.587,13.095-15,21c-1.805,5.912-2.279,15.887-2,21
		c0.379,6.943,6.907,13.262,6,21c-1.051,8.96-27.582,24.042-39,25c-24.326,2.04-45.544,1.042-66,1c-8.962,7.673-24.54,19.166-38,8
		c-9.165-12.029-0.584-26.345,1-37c-15.203,0.01-49.353,16.318-55-1c-5.894-18.073,16.077-29.383,23-41
		c12.851-2.131,25.954-1.424,37,2c5.338,1.654,7.734,5.516,13,5c3.233-0.316,6.891-4.187,11-7c13.779-9.435,23.528-20.542,29-36
		c-1.122-0.211-1.557-1.11-2-2c23.27,2.285,26.483-13.007,46-14C1107.149,224.552,1128.476,228.767,1142.5,232.5z"/>
	<path id="Fox_Forest_Area" fill-rule="evenodd" clip-rule="evenodd" fill="none" stroke="#FFFFFF" stroke-width="6" d="
		M677.5,242.5c10.005,1.328,17.376,5.291,26,8c4.603,15.295,26.056,29.468,22,49c-2.363,11.38-17.954,14.921-27,22
		c-0.703,12.704,3.578,20.421,10,26c-2.109,9.373-12.837,11.577-18,21c-5.879,10.73-6.521,22.975-19,27
		c-11.889,0.379-22.363-0.878-25,7c-3.037,9.074,8.031,25.676,5,38c1.466,4.946,6.163,4.348,9,8c5.51,7.093,4.752,19.261,15,22
		c23.358-2.1,41.748,8.459,42,23c0.447,25.801-74.349,27.399-50,56c-8.213-1.212-11.355,2.645-16,5
		c-9.367-9.848-31.925-19.515-49-12c-9.939-24.395-26.846-41.82-46-57c12.454-8.894,28.665-24.724,22-47
		c-1.869-6.246-7.88-10.286-12-16c-0.845-9.514-5.176-17.983-2-29c2.895-10.041,13.534-14.305,14-21c0.453-6.503-9.193-13.592-13-19
		c-3.981-5.656-8.59-15.386-9-22c-0.626-10.105,4.511-17.66,3-25c-1.146-5.566-12.102-11.441-8-21c0.915-2.132,2.883,0.061,3-3
		c0.291-7.614-6.854-21.038-12-27c-3.959-4.588-10.203-7.575-14-11c-9.561-2.156-16.667,3.92-23,2c-6.158-1.868-5.688-10.378-12-13
		c-0.339-7.096,7.764-19.179,2-22c1.296-9.515,12.046-9.764,22-8c22.35-18.982,68.656-26.173,107-17c5.053,5.169,4.261,11.798,9,18
		c5.173,6.77,13.299,8.381,16,16c3.022,8.528,0.253,17.639,10,22C666.263,241.761,673.313,243.714,677.5,242.5z"/>
	<path id="Spawn_Archipelago" fill-rule="evenodd" clip-rule="evenodd" fill="none" stroke="#FFFFFF" stroke-width="6" d="
		M834.5,641.5c-30.741-2.918-78.479,6.353-110-3c-3.538-10.795-11.518-17.149-17-26c-9.199-0.801-15.766-4.234-23-7
		c-22.159,8.208-46.184-2.195-71,1c-2.622-15.36-17.419-13.428-18-28c-0.5-12.52,19.479-20.761,7-36
		c17.075-7.515,39.633,2.152,49,12c4.645-2.355,7.787-6.212,16-5c-24.349-28.601,50.447-30.199,50-56
		c-0.252-14.541-18.642-25.1-42-23c-10.248-2.739-9.49-14.907-15-22c-2.837-3.652-7.534-3.054-9-8c3.031-12.324-8.037-28.926-5-38
		c2.637-7.878,13.111-6.621,25-7c7.223,5.134,21.144,8.409,32,4c-2.088-35.368,51.725-21.163,47,4c8.58,13.89,20.419,22.424,35,32
		c8.189,5.378,18.388,7.946,27,14c33.004,23.199,37.524,111.123,18,151c-3.765,0.568-5.274,3.393-7,6
		C823.546,621.788,827.563,633.103,834.5,641.5z"/>
	
		<path id="Para-Arch_Area" fill-rule="evenodd" clip-rule="evenodd" fill="none" stroke="#FFFFFF" stroke-width="6" stroke-miterlimit="10" d="
		M919,840c12.174,21.268,32.479,41.45,66,36c18.073-2.939,19.965-18.44,34-24c14.762-5.849,29.407-1.519,44-7
		c9.551,18.651,37.543,10.178,57,9c34.869,0.86,66.557,13.396,77,42c31.379-6.469,47.842,15.227,41,49
		c-3.39,16.73-22.688,32.951-30,40c-25.176,3.175-37.834-6.166-50-16c-4.25-3.592-10.948-14.477-20-14
		c-9.766,0.514-9.227,12.457-16,17c-3.85,2.581-12.094,2.687-19,6c-6.006,2.881-11.017,8.488-16,10c-9.201,2.789-21.958,1.552-33,4
		c-10.915,2.42-19.77,8.143-28,8c-8.472-0.147-15.847-4.454-24-4c-13.213,0.735-23.672,11.372-36,11c0.003-1.004-0.81-1.19-1-2
		c-3.291,0.041-4.979,1.688-9,1c-20.063-10.271-44.003-16.664-52-39c-13.048-7.314-31.739-13.094-41-21
		c-14.835-0.165-29.393-0.607-38-7c4.649-19.285-4.195-34.548-1-52c1.407-7.686,6.86-10.737,10-17c5.277-10.53,4.688-24.632,13-30
		c8.985,2.501,12.665-6.753,21-8C880.448,842.363,902.077,853.1,919,840z"/>
	
		<path id="Ring_Rivers" fill-rule="evenodd" clip-rule="evenodd" fill="none" stroke="#FFFFFF" stroke-width="6" stroke-miterlimit="10" d="
		M950,603c2.402,3.959,9.141,4.083,13,7c7.07,5.344,9.498,17.273,17,21c4.536,2.253,30.688,6.165,38,5
		c5.933-0.945,10.499-6.902,17-9c8.201-2.647,16.163-2.248,25-6c4.135,5.444,11.752,4.622,18,8c9.846,5.323,15.246,17.168,27,21
		c3.639,1.186,7.526-0.38,11,1c5.761,2.29,8.339,8.067,15,9c10.344,1.448,17.908-4.784,28-8c8.781,8.537,25.811,11.938,39,13
		c-1.832,24.835-16.075,37.259-39,41c8.73,22.084-11.548,36.578-18,53c0.033,3.032-3.509,2.491-6,3
		c14.593,12.74,43.269,11.397,56,26c0,4,0,8,0,12c-19.331,11.002-55.421,5.245-72,19c8.049,7.199,4.693,25.598,1,35
		c-19.457,1.178-47.449,9.651-57-9c-14.593,5.481-29.238,1.151-44,7c-14.035,5.56-15.927,21.061-34,24
		c-33.521,5.45-53.826-14.732-66-36c-1.004-3.338,1.388-3.279,4-3c0.566-6.233-6.305-5.029-7-10c-0.134-14.135,11.631-16.369,15-27
		c10.618-2.049,26.083,0.75,34-4c2.457-5.931,4.968-9.288,3-16c-1.73-5.902-8.981-8.207-10-13c-1.635-7.696,3.076-15.954,2-24
		c-2.429-18.154-12.313-29.093-30-34c-11.052-16.282-15.816-38.85-34-48c-0.529-0.804-1.043-1.624-1-3
		c-4.425-11.889-5.501-25.182-8-42c-2.137-14.385-4.764-25.852,8-29C916.215,581.767,935.426,597.82,950,603z"/>
	<path id="Stone_Watcher_Jungle" fill-rule="evenodd" clip-rule="evenodd" fill="none" stroke="#FFFFFF" stroke-width="6" d="
		M1145,106c-0.045,0.074,0.057,0.99,0,1c-4.267,0.742-14.711,2.137-23,4c-5.49-2.51-5.412-10.588-7-17
		c-6.592-8.409-28.877-1.123-40-5c-0.658-13.659,2.159-23.84,9-30c3.759-3.01,9.623-5.45,16-3c-3.085-14.92-2.693-31.515-15-39
		c-7.432-0.568-12.928-3.072-17-7c-0.369-3.964,0.916-9.583-1-12c-20.237-1.898-18.514,14.083-30,17
		c-10.141,2.575-24.75-5.332-30-13c-3.979-5.812-6.753-19.616-5-29c2.438-13.049,15.715-22.955,15-38
		c-0.728-15.31-17.335-25.568-17-35c0.477-13.418,18.478-9.499,30-10c6.057,5.24,22.161,12.287,24,25
		c2.635,18.213-1.464,51.639-11,58c22.049-10.885,59.837-5.419,58,23c4.737,7.146,12.805,7.543,18,14
		c8.659,10.762,13.928,31.479,9,47c-1.141,3.592-7.319,7.179-8,12C1117.173,89.031,1146.676,87.087,1145,106z"/>
	<path id="Northern_Seas" fill-rule="evenodd" clip-rule="evenodd" fill="none" stroke="#FFFFFF" stroke-width="6" d="M676,242
		c-3.891,1.511-11.444-0.946-18,0c-8.481-4.797-5.406-11.771-8-20c-2.755-8.742-11.331-9.945-17-17c-5.472-6.81-3.218-14.368-10-19
		c-38.425-8.848-83.06-1.511-106,17c-9.988-1.798-20.397-1.208-22,8c-9.377-3.989-13.752,0.259-18,6
		c-10.006-6.487-30.386-17.131-41-26c-8.792-7.346-14.564-18.329-23-26c-4.285-3.896-10.495-5.448-15-9
		c-23.138-18.242-42.629-57.054-22-91c18.266-19.753,47.195-5.56,60,10c15.3-2.369,32.354-3.973,48-10c5.042-1.942,8.321-7.421,13-9
		c5.596-1.889,15.578,0.152,24-1c26.312-3.599,47.257-41.61,75-29c7.921,3.601,16.205,25.473,13,41c-1.503,7.283-9.796,13.944-10,23
		c-0.213,9.486,4.896,14.141,9,22c12.053-0.387,20.431,2.903,29,6c13.669,19.259,22.46,53.804,34,80
		C675.515,208.249,690.716,229.963,676,242z"/>
	
		<path id="Canine_Basalt_Domain" fill-rule="evenodd" clip-rule="evenodd" fill="none" stroke="#FFFFFF" stroke-width="6" stroke-miterlimit="10" d="
		M899,209c17.488,7.271,20.965,31.579,39,36c8.55,2.096,20.647-0.027,30-1c28.102-2.924,50.426-13.8,75-4
		c1.756,11.025-17.069,29.977-29,38c-11.606,7.805-11.355,4.654-25,1c-8.884-2.379-25.245-5.642-34-2c-2.772,1.153-3.17,3.96-7,8
		c-5.132,5.413-22.047,17.344-17,33c5.495,17.047,39.723,1.867,55,1c1.728,7.497-5.882,12.843-6,21
		c-0.375,25.832,30.606,24.491,42,9c21.175-1.245,43.346,0.067,67-2c12.216-1.067,35.896-15.282,38-23
		c2.054-7.535-4.559-13.957-5-23c-0.313-6.413,3.798-11.098,1-18c8.923-13.436,21.348-28.619,18-51c18.592-0.591,28.179,7.821,43,11
		c0,1,0,2,0,3c17.428,10.906,31.174,25.493,48,37c-1.496,5.195,0.653,6.98-1,14c-7.296,4.038-14.734,7.932-21,13
		c0.27,12.397,6.592,18.741,16,22c-0.617,53.05-27.743,79.59-56,105c9.624,10.479,2.401,28.363-3,38c0.156,2.841,2.817,3.917,3,9
		c0.486,13.571-14.729,26.389-11,45c2.099,10.475,12.2,11.665,12,26c13.778,1.24,22.997,5.062,37,10
		c19.348,6.822,38.529,12.811,28,39c-3.562,8.857-9.793,17.579-13,29c-3.184,11.335-5.318,22.476-11,31
		c-5.644-0.31-8.893,1.773-15,1c-13.734-0.28-28.479-6.367-40-12c-10.91,6.886-33.844,11.337-41-2
		c-24.667,0.333-27.499-21.167-49-24c-2.138-1.196-1.952-4.714-5-5c-10.127,2.273-18.321,2.295-27,5c-6.16,1.92-10.455,7.943-16,9
		c-8.506,1.621-36.346-3.701-41-7c-7.314-5.185-8.404-14.015-15-19c-3.917-2.96-10.006-2.774-13-7c1.633-4.962,4.318-7.982,5-13
		c1.49-10.97-4.554-20.235-6-30c-1.354-9.141,0.748-20.012,0-29c-0.771-9.255-1.214-26.823-5-33c-6.909-11.273-35.079-7.151-49-11
		c-7.933-2.193-17.083-8.433-26-14c-8.119-5.069-17.424-8.7-24-15c-4.273-4.095-7.29-11.24-11-15c-9.851-9.983-22.291-16.157-25-28
		c-3.183-13.913,3.858-23.284,3-41c6.377-9.28,11.672-17.331,17-26c6.57-10.688,7.065-19.306,11-32
		c4.822-15.556,19.068-23.895,28-38c6.724-10.619,5.561-21.845,9-34C880.179,232.769,892.471,219.011,899,209z"/>
	
		<path id="Bunflower_Domain" fill-rule="evenodd" clip-rule="evenodd" fill="none" stroke="#FFFFFF" stroke-width="6" stroke-miterlimit="10" d="
		M1084,59c-6.841,6.16-9.658,16.341-9,30c11.123,3.877,33.408-3.409,40,5c1.588,6.412,1.51,14.49,7,17
		c8.289-1.863,18.733-3.258,23-4c0.057-0.01-0.045-0.926,0-1c15.248-0.042,23.476,2.488,35,8c9.968,4.767,14.717,15.724,23,19
		c8.849,3.5,20.494-0.082,28,8c2.287,11.713,0.367,27.632,1,41c9.787,1.212,16.121,5.879,20,13c0.912,13.003-18.519,12.59-30,15
		c-19.865,4.17-37.816,11.711-38,33c-14.821-3.179-24.408-11.591-43-11c-16.177-3.194-44.532-11.294-64-5
		c-10.408,3.365-17.285,14.739-34,13c-24.574-9.8-46.898,1.076-75,4c-9.353,0.973-21.45,3.096-30,1
		c-18.035-4.421-21.512-28.729-39-36c3.941-9.558,10.717-15.661,11-27c0.101-4.034-2.006-8.112-2-13c0.01-8.548,3.853-16.742,7-24
		c3.237-7.465,9.437-14.139,10-21c1.059-12.898-7.406-27.778-5-42c1.449-8.568,6.943-13.15,10-22c7.737-2.924,14.658-4.848,24-2
		c5.27,1.606,7.438,6.671,12,6c3.916-0.577,6.47-8.175,10-12c8.332-9.028,32.73-26.527,48-28c13.104-1.264,21.266,5.86,32,4
		c7.77-1.347,11.134-9.964,23-7C1089.766,30.214,1080.684,45.036,1084,59z"/>
	
		<path id="Migratory_Area" fill-rule="evenodd" clip-rule="evenodd" fill="none" stroke="#FFFFFF" stroke-width="6" stroke-miterlimit="10" d="
		M1226,332c-8.766-3.2-17.729-11.366-16-20c1.771-8.851,15.123-9.162,21-15c1.653-7.02-0.496-8.805,1-14
		c-16.826-11.507-30.572-26.094-48-37c0-1,0-2,0-3c0.184-21.289,18.135-28.83,38-33c11.481-2.41,30.912-1.997,30-15
		c39.325-8.643,37.359,32.629,51,53c39.426-3.908,60.889-25.777,104-26c3.164-2.169,5.896-4.771,8-8
		c-3.016-13.984-1.694-32.306-8-43c-6.48,0.082-10.669,8.695-19,10c-3.584,0.561-7.687-1.271-12-1
		c-12.838,0.808-24.607,10.723-35,11c-8.156,0.218-17.717-8.132-28-10c-19.94-3.623-37.358-1.081-47-13
		c-5.409-6.687-11.414-22.763-15-35c-3.743-12.774-4.482-26.893,3-36c11.78-3.213,23.638,0.621,30,6c-0.285,6.952-0.08,13.413,2,18
		c10.477,5.227,18.109-2.352,27-4c7.07-1.311,14.463,1.667,22,0c5.423-1.2,10.95-7.128,14-8c10.555-3.017,23.666-2.169,31,0
		c7.072,2.092,11.384,9.318,20,9c11.964-0.441,17.316-13.472,34-8c7.437,2.439,8.544,9.562,15,15c6.729,5.668,14.95,5.271,19,12
		c17.453-2.907,44.351-6.25,58,1c9.641,5.121,16.62,22.071,26,34c9.321,11.855,22.424,26.241,30,39c-6.018,12.976-0.312,30.425-4,42
		c-6.648,20.866-35.198,17.996-42,38c21.306,4.245,44.45,27.285,48,46c3.03,15.977-0.881,39.521-6,50
		c-3.654,7.479-12.003,15.917-16,18c-9.073,4.728-28.646,9.46-42,10c-26.628,1.076-57.804-10.031-71-22
		c-4.967-4.504-9.959-13.913-15-22c-3.59-5.758-9.472-18.903-17-19c-9.138-0.118-12.717,13.812-24,16
		c-20.67,4.009-35.121-5.738-49-10c-17.9-5.498-36.188,1.662-53-3c-14.94-4.143-34.174-10.206-38-16c-3.844-5.82-0.748-17.646-8-20
		C1239.821,324.488,1235.057,330.39,1226,332z"/>
</g>
</svg>
