<?xml version="1.0" encoding="utf-8"?>
<!-- Generator: Adobe Illustrator 15.0.2, SVG Export Plug-In . SVG Version: 6.00 Build 0)  -->
<!DOCTYPE svg PUBLIC "-//W3C//DTD SVG 1.1//EN" "http://www.w3.org/Graphics/SVG/1.1/DTD/svg11.dtd">
<svg version="1.1" id="Layer_1" xmlns="http://www.w3.org/2000/svg" xmlns:xlink="http://www.w3.org/1999/xlink" x="0px" y="0px"
	 width="826px" height="814px" viewBox="0 -131 826 814" enable-background="new 0 -131 826 814" xml:space="preserve">
<g>
	
		<path id="Scenic_Sea" fill-rule="evenodd" clip-rule="evenodd" fill="none" stroke="#FFFFFF" stroke-width="3" stroke-miterlimit="10" d="
		M685,316c4.799,2.78,11.561-1.15,17,4c0.802,3.469-1.49,3.844-1,7c4.224,2.8,13.174,1.227,18-1c0.666,0,1.333,0,2,0
		c0.807-0.86,2.738-0.594,3-2c7.406-3.61,17.133-1.477,23,2c5.337,3.996,13.388,5.278,20,8c3.897,5.251,10.991,7.952,12,14
		c1.758,10.551-12.13,17.259-14,27c-3.003,1.331-7.65,1.017-12,1c2.763,6.57,10.774,7.892,15,13c1.247,5.914-2.187,7.147-4,10
		c-0.908,14.908,2.877,25.123,8,34c-3.771,4.563-8.625,8.042-12,13c-11.264,0.5-16.061-8.192-28-4c0.503,7.504-2.457,11.543-6,15
		c-5.197-0.136-9.621-1.046-12-4c-5.373,16.536-29.017,9.04-28-8c-6.182,3.594-12.972,11.548-23,8c11.242,15.333,27.759,41.433,9,59
		c7.346,11.922,5.857,31.146-8,35c-10.555,2.935-24.116-2.533-24,11c-5.439-0.894-11.259-1.409-15-4
		c-2.908-20.017-5.536-49.042-2-63c4.376-17.28,1.631-42.468,17-46c-2.66-2.674-1.23-9.437-3-13c-8.442,1.381-12.791,13.552-23,7
		c-0.843-5.825-1.866-11.468-5-15c-1.675-1.659-0.796-5.871-1-9c20.614-0.484,11.635-42.777-9-32c-4.966-14.455-22.5-21.381-39-21
		c2.293-4.099,3.333-14.136,0-18c8.846-6.154,25.579-4.421,36-9c0.62-16.287-20.525-10.809-28-19c5.712-2.621,6.738-9.929,10-15
		c5.617-3.716,6.396-12.271,15-13c3.465,2.591,8.557,4.066,14,2c5.678,11.722,20.266,29.715,41,29c3.966-0.137,9.659-4.722,16-4
		c6.453,0.734,7.982,5.436,13,5C680.413,319.704,684.152,316.223,685,316z"/>
	
		<path id="Boreal_Maze" fill-rule="evenodd" clip-rule="evenodd" fill="none" stroke="#FFFFFF" stroke-width="3" stroke-miterlimit="10" d="
		M571,51c9.746-1.079,13.136,4.198,21,5c7.24,7.76,15.856,14.145,25,20c19.301-8.864,18.226,21.756,32,24
		c10.436,1.7,17.337-8.076,26,1c-0.379,16.461,26.074,30.613,39,29c8.163-1.019,11.08-10.794,19-11c11.327,2.252,20.236,9.619,32,8
		c9.041-1.244,16.162-11.071,26-7c-0.58,11.087-6.757,16.577-16,19c0.294,2.039,2.705,1.961,3,4c11.766-11.545,47.563-6.561,41,15
		c-4.916,2.085-10.716,3.284-15,6c6.067,6.226,7.145,17.235,2,26c-7.19,0.856-9.812-2.856-15-4c-3.199,1.227,0.822,11.006-3,14
		c-15.605,7.037-24.433-8.49-33-15c2.941,6.281,8.139,16.686,1,22c15.816,3.381,8.79,25.88,2,34c-9.565,0.231-7.551-11.116-16-12
		c1.212,17.853,18.81,24.033,11,45c-1.759,0.575-5.876-1.208-6,1c15.759,2.521,34.782-0.16,41,11c6.405,11.498-3.396,27.705-10,37
		c-2.667,0-5.334,0-8,0c-2.917,2.56,1.303,7.054-1,9c-14.071-1.556-27.337-7.816-20-25c-1.221,0.113-2.368,0.299-2,2
		c-4.885-0.116-10.539,0.539-14-1c0.184-0.851-0.391-0.943-1-1c-1.319,7.348-8.068,9.266-13,13c-0.792,3.458,1.111,4.222,2,6
		c-0.667,0-1.334,0-2,0c-4.839-0.8-12.082,1.2-14,0c-4.022,0.582,0.497-2.959-1-6c-4.524-8.081-15.615-2.148-19-8
		c-2.995,0.658,0.956,2.138,0,4c-0.848,0.223-4.587,3.704-8,4c-5.018,0.436-6.547-4.266-13-5c-6.341-0.722-12.034,3.863-16,4
		c-20.734,0.715-35.322-17.278-41-29c-5.443,2.066-10.535,0.591-14-2c-8.604,0.729-9.383,9.284-15,13c0.169-9.806-6.396-17.188-4-26
		c2.938-2.729,8.931-2.402,13-4c-0.009-4.324-4.717-3.95-6-7c0-0.667,0-1.333,0-2c4.86-1.957,3.54-9.034,3-14
		c-6.444,4.074-15.952,2.879-21-2c-4.354-17.818-6.883-31.186-4-48c1.397-8.146,1.543-19,4-27c3.38-11.004,6.452-16.279,0-26
		c-12.203-5.447-23.651-21.248-19-37c9.506-0.828,14.748-5.919,20-11C554.965,78.309,571.174,69.575,571,51z"/>
	
		<path id="Pinball_Ice_Field" fill-rule="evenodd" clip-rule="evenodd" fill="none" stroke="#FFFFFF" stroke-width="3" stroke-miterlimit="10" d="
		M524,683c-1.333,0-2.667,0-4,0c-11.725-4.308-28.646-17.682-35,0c-5.667,0-11.333,0-17,0c-5.292-10.197,0.071-17.653,0-25
		c-0.269-27.959-40.724-25.16-29-61c26.943-14.258,54.209,8.12,71,20c3.664,6.336,7.544,12.455,10,20c7.266-2.988,15.39-1.611,21,2
		c0.194-13.708,5.388-30.696,20-21c-3.056,9.277-3.286,21.381-7,30c-6.444,4.544-13.854,2.606-18,9c-1.731,2.67-0.659,6.586-2,10
		c-1.016,2.585-4.845,4.173-6,7C526.147,678.535,528.732,683.31,524,683z"/>
	
		<path id="Stone_Watcher_Jungle" fill-rule="evenodd" clip-rule="evenodd" fill="none" stroke="#FFFFFF" stroke-width="3" stroke-miterlimit="10" d="
		M572-15c-0.184,4.184-8.187,5.768-11,4c-3.354-0.313-2.802-4.531-3-8c-5.114-1.886-13.349-0.651-20-1
		c-0.624-7.29,0.896-12.438,4-16c2.691-0.433,5.128-3.753,8-1c-0.228-12.105-3.708-20.958-15-22c-1.378-1.289-0.99-4.344-1-7
		c-10.643-1.167-9.363,6.985-16,8c-6.769,1.035-13.027-3.597-15-7c-7.345-12.669,6.281-21.646,6-32c-0.298-10.984-8.23-10.342-9-20
		c23.736-15.796,35.252,22.345,22,38c11.724-4.895,29.917-2.08,29,12c12.347,5.084,18.335,25.245,9,38
		C561.768-22.101,569.926-21.593,572-15z"/>
	
		<path id="Northern_Seas" fill-rule="evenodd" clip-rule="evenodd" fill="none" stroke="#FFFFFF" stroke-width="3" stroke-miterlimit="10" d="
		M339,56c-3.333,0-6.667,0-10,0c-3.67-11.33-11.687-18.313-17-28c-18.063-4.532-41.973-1.716-52,8c-5.152,0.182-11.819-1.152-12,4
		c-5.309-1.159-6.821-0.684-9,3c-13.138-3.273-22.416-17.684-32-26c-2.465-2.139-6.61-2.83-9-5c-10.333-9.384-21.572-31.716-10-45
		c11.746-13.483,21.625,3.091,31,5c5.088,1.036,14.56-1.492,21-4c2.779-1.082,5.003-4.093,8-5c4.54-1.374,10.069-0.138,14-1
		c13.44-2.947,19.405-16.94,35-15c17.428,9.749-3.204,31.471,7,44c6.24-0.907,9.176,1.491,14,2
		C325.472,11.037,342.991,34.137,339,56z"/>
	
		<path id="Fox_Forest_Area" fill-rule="evenodd" clip-rule="evenodd" fill="none" stroke="#FFFFFF" stroke-width="3" stroke-miterlimit="10" d="
		M339,56c15.807,1.86,21.182,14.151,24,29c-3.829,4.505-9.081,7.586-14,11c0.052,5.948,2.72,9.28,5,13
		c-7.487,5.847-9.898,16.769-17,23c-0.667,0-1.333,0-2,0c-5.153-0.153-8.719,1.281-12,3c0.454,15.88,6.392,26.274,14,35
		c12.471-1.471,18.337,3.663,22,11c-4.23,12.436-21.437,11.897-28,22c-1.671,3.766,4.652,4.554,2,6c-2.561,0.772-5.669,0.998-7,3
		c-4.835-4.989-17.285-10.222-25-6c-4.402-12.932-13.975-20.692-23-29c7.606-5.19,14.905-11.09,11-23c-2.948-8.994-9.027-12.73-7-22
		c0.906-4.144,4.548-5.053,7-11c-4.046-9.821-15.05-16.906-9-31c-5.164-11.398-2.911-27.071-15-33c-4.729-0.395-8.346,0.321-12,1
		c-7.547-2.727-4.631-12.03-5-18c0.181-5.152,6.848-3.818,12-4c10.027-9.716,33.937-12.532,52-8c5.313,9.687,13.33,16.67,17,28
		C332.333,56,335.667,56,339,56z"/>
	
		<path id="Uneven_Swamp_Area" fill-rule="evenodd" clip-rule="evenodd" fill="none" stroke="#FFFFFF" stroke-width="3" stroke-miterlimit="10" d="
		M248,40c0.369,5.97-2.547,15.273,5,18c3.654-0.679,7.271-1.395,12-1c12.089,5.929,9.836,21.602,15,33
		c-6.05,14.094,4.954,21.179,9,31c-2.452,5.947-6.094,6.856-7,11c-2.027,9.27,4.052,13.006,7,22c3.905,11.91-3.394,17.81-11,23
		c-4.655,0.321-5.565-3.102-9-4c-9.891,2.443-12.585,12.081-18,19c-9.257-3.792-13.772,6.032-20,7c-10.003,1.556-15.613-6.901-25-10
		c-7.309,6.024-22.746,3.921-25,15c-12.239-2.428-13.762-15.571-27-17c-1.855-2.478,0.333-9-5-8c-1.189-3.145-3.375-5.291-4-9
		c-4.449,0.783-6.001-1.332-10-1c-19.156-8.729-11.771-66.091,2-76c16.752-12.054,42.756,5.75,48,23c9.047-3.369,17.637-2.301,25,0
		c2.037,0.637,6.646,3.99,7,4c3.803,0.109,9.546-5.096,14-6c11.536-2.343,24.829-1.459,28-13c6.191-30.793-11.409-30.743-23-42
		c0.298-6.035,0.241-12.426,3-16C241.179,39.316,242.691,38.841,248,40z"/>
	
		<path id="Loop_River_Wetlands" fill-rule="evenodd" clip-rule="evenodd" fill="none" stroke="#FFFFFF" stroke-width="3" stroke-miterlimit="10" d="
		M571,51c0.089,18.66-15.892,27.166-7,46c-8.576,13.658-35.388,11.865-52,12c-5.834,3.098-8.425,7.58-15,6
		c-10.324-2.48-5.069-14.411-4-21c-8.381,1.097-21.462,7.866-27,0c-0.063-19.13,18.92-26.399,36-17c8.926-5.074,17.075-10.925,20-22
		c0-0.333,0-0.667,0-1c13.376-2.728,23.945-8.462,39-6C564.431,48.562,566.917,50.678,571,51z"/>
	
		<path id="Spawn_Archipelago" fill-rule="evenodd" clip-rule="evenodd" fill="none" stroke="#FFFFFF" stroke-width="3" stroke-miterlimit="10" d="
		M417,255c-14.734-0.313-39.11,3.302-55-1c-5.149-22.152-33.354-14.154-55-16c-1.652-7.488-8.534-7.175-9-14
		c-0.394-5.766,9.217-11.205,3-18c7.715-4.222,20.165,1.011,25,6c1.331-2.002,4.439-2.228,7-3c2.652-1.446-3.671-2.234-2-6
		c6.563-10.103,23.77-9.564,28-22c-3.663-7.337-9.529-12.471-22-11c-7.608-8.726-13.546-19.12-14-35c3.281-1.719,6.847-3.153,12-3
		c2.887,2.723,11.216,4.404,16,2c1.572-2.761,1.463-7.204,4-9c8.135-4.581,15.031,1.68,20,6c3.38,19.155,18.212,18.812,31,28
		c13.668,9.821,20.139,47.472,13,68c-1.36,3.91-6.357,7.563-7,12C411.066,245.45,414.369,250.36,417,255z"/>
	
		<path id="Soaking_Savanna" fill-rule="evenodd" clip-rule="evenodd" fill="none" stroke="#FFFFFF" stroke-width="3" stroke-miterlimit="10" d="
		M149,179c5.333-1,3.145,5.522,5,8c13.238,1.429,14.761,14.572,27,17c6.16,6.896,4.198,12.112,4,22c-0.16,7.985,6.947,12.731,4,23
		c2.951,4.552,7.508,12.26,8,16c-2.333,6.858-10.099,3.699-15,6c-7.209,3.385-8.685,10.783-13,17c4.169,4.354,8.789,5.814,10,13
		c1.515,8.99-4.692,19.242-3,27c1.011,4.637,7.024,7.614,7,12c-0.043,7.744-9.751,8.968-7,18c6.423,2.252,18.745,5.823,25,2
		c0.132-6.193,0.6-15.447,8-13c0.611,24.722,11.406,39.26,19,57c0,0.667,0,1.333,0,2c-14.61-1.005-24.298,1.931-38-2
		c-7.673-2.201-15.862-14.556-23-15c-6.638-0.413-10.206,7.597-16,11c-9.309,5.467-31.358,6.648-46,11
		c-3.886,1.155-7.508,3.737-10,4c-12.969,1.369-22.368-4.691-34-11c-6.537-13.03-1.355-40.882,4-50c3.182-5.418,7.476-6.349,8-11
		c0.596-5.283-2.695-12.561-2-20c0.609-6.514,4.526-13.361,5-19c1.833-21.798-12.877-19.713-20-32c-1.47-2.535-1.17-7.154-3-11
		c-1.739-3.654-5.916-6.616-7-9c-3.644-8.01,1.804-19.188-1-29c-1.849-6.471-8.684-13.056-8-21c1.555-18.057,22.541-23.366,33-35
		c-7.811-22.485,9.518-45.008,28-31c1.856,1.407,1.546,4.788,4,8c2.203,2.884,6.972,4.573,9,7c5.074,6.072,7.069,14.596,13,19
		C131.936,175.893,140.877,175.45,149,179z"/>
	
		<path id="Arch_House_Area" fill-rule="evenodd" clip-rule="evenodd" fill="none" stroke="#FFFFFF" stroke-width="3" stroke-miterlimit="10" d="
		M278,177c9.025,8.308,18.598,16.068,23,29c6.217,6.795-3.394,12.234-3,18c0.466,6.825,7.348,6.512,9,14
		c-2.096,16.784-18.679,31.655-8,49c-5.013,7.273-17.959,13.487-31,19c-21.377,9.037-57.658,11.789-41,38
		c-4.397,2.603-10.411,3.589-18,3c-7.4-2.447-7.868,6.807-8,13c-6.255,3.823-18.577,0.252-25-2c-2.751-9.032,6.957-10.256,7-18
		c0.024-4.386-5.989-7.363-7-12c-1.692-7.758,4.515-18.01,3-27c-1.211-7.186-5.831-8.646-10-13c4.315-6.217,5.791-13.615,13-17
		c4.901-2.301,12.667,0.858,15-6c-0.492-3.74-5.049-11.448-8-16c2.947-10.269-4.16-15.015-4-23c0.198-9.888,2.16-15.104-4-22
		c2.254-11.079,17.691-8.976,25-15c9.387,3.099,14.997,11.556,25,10c6.228-0.968,10.743-10.792,20-7c5.415-6.919,8.109-16.557,18-19
		C272.435,173.898,273.345,177.321,278,177z"/>
	
		<path id="Wooded_Lands" fill-rule="evenodd" clip-rule="evenodd" fill="none" stroke="#FFFFFF" stroke-width="3" stroke-miterlimit="10" d="
		M417,255c8.557,6.993,24.495,0.781,31,9c8.664,6.901,8.253,10.801,13,20c3.267,6.331,12.775,7.922,16,13
		c3.449,5.432,3.984,12.876,2,21c3.931,3.845,7.756,8.623,4,15c-4.647,1.686-12.493,0.174-17,2c-2.26,4.933-7.531,7.141-8,12
		c-0.335,3.476,6.066,5.069,2,8c-9.063,6.132-19.317,0.592-26-4c-19.222,6.129-23.676,27.671-21,53c-10.227,0.561-14.376-4.957-24-5
		c-3.48,1.853-1.627,9.04-5,11c-2.288,1.045-6.032,0.635-8,2c-7.101-4.566-10.564-12.769-24-11c-3.917,0.749-4.002,5.331-8,6
		c-23.986-3.409-33.336,12.329-57,6c-10.388,13.612-25.405,22.595-49,23c-6.516-7.484-1.165-26.835-10-32
		c-7.594-17.74-18.389-32.278-19-57c7.589,0.589,13.603-0.397,18-3c-16.658-26.211,19.623-28.963,41-38
		c13.041-5.513,25.987-11.727,31-19c-10.679-17.345,5.904-32.216,8-49c21.646,1.846,49.851-6.152,55,16
		C377.89,258.302,402.266,254.688,417,255z"/>
	
		<path id="Bastion_Area" fill-rule="evenodd" clip-rule="evenodd" fill="none" stroke="#FFFFFF" stroke-width="3" stroke-miterlimit="10" d="
		M413,404c13.088,4.579,28.573,6.76,39,14c4.717,11.84,19.784,17.91,31,20c7.599,5.866,18.243,16.64,13,29
		c-10.135,1.198-17.142,5.525-23,11c-12.532-0.532-12.124,11.876-25,11c-4.225,1.775-5.658,6.342-8,10c0.141,4.526,4.45,4.884,4,10
		c-0.383,7.294-12.264,9.551-16,20c-3.683,10.302-1.045,20.023-9,27c-4.012,3.519-10.931,3.229-18,7c-2.955,1.577-7.85,9.704-12,9
		c-6.395-1.084-5.913-10.424-4-17c-5.459-2.807-5.55-8.609-11-13c-4.407-3.551-11.758-4.067-15-8c-3.98-4.828-8.507-18.614-7-27
		c1.76-9.794,17.828-13.403,13-30c-5.552-4.115-12.462-6.871-16-13c-7.22-33.553,27.48-25.187,27-52c1.968-1.365,5.712-0.955,8-2
		c3.373-1.96,1.52-9.147,5-11C398.624,399.043,402.773,404.561,413,404z"/>
	
		<path id="Beep_Beep_Sheep_Area" fill-rule="evenodd" clip-rule="evenodd" fill="none" stroke="#FFFFFF" stroke-width="3" stroke-miterlimit="10" d="
		M243,516c7.461-10.752-1.66-26.52-12-29c0.163-1.163-0.221-1.779-1-2c5.223-19.405,22.545-2.423,33,1
		c16.759,5.487,38.715,4.206,53,11c5.884,6.22,2.033,13.898,4,21c4.053,14.632,29.365,15.714,20,39c-12.802,6.542-33.83,13.971-51,8
		c-15.898-5.528-22.203-29.131-29-43C254.966,519.367,249.951,516.716,243,516z"/>
	
		<path id="Matchstick_Forest" fill-rule="evenodd" clip-rule="evenodd" fill="none" stroke="#FFFFFF" stroke-width="3" stroke-miterlimit="10" d="
		M231,487c10.34,2.48,19.461,18.248,12,29c-4.665,7.548-13.973,10.883-15,20c-0.758,6.727,2.936,18.042,4,26
		c1.967,14.703,9.213,28.396,5,41c-2.443,7.309-23.903,25.087-31,26c-14.623,1.881-28.21-1.116-39-5
		c-6.918-2.491-10.977-10.931-18-13c-8.549-2.519-14.125,1.975-24-2c-5.497-5.17-3.106-18.228-9-23c-12.948-2.138-38.48,14.099-41-7
		c-0.684-5.724,2.696-12.912,7-16c3.35-2.403,9.028-1.523,13-4c4.024-2.509,12.737-15.656,15-21c1.791-4.229,0.906-10.255,3-14
		c4.19-7.495,11.906-6.535,13-12c-0.019-11.174,4.158-18.89,11-19c9.209-0.147,8.042,11.074,16,17c7.271,5.415,13.513,2.968,17,8
		c10.223-2.777,22.819-3.181,31-8C198.32,492.766,216.057,489.688,231,487z"/>
	
		<path id="Bunflower_Domain" fill-rule="evenodd" clip-rule="evenodd" fill="none" stroke="#FFFFFF" stroke-width="3" stroke-miterlimit="10" d="
		M542-36c-3.104,3.563-4.624,8.71-4,16c6.651,0.349,14.886-0.886,20,1c0.198,3.469-0.354,7.687,3,8c2.813,1.768,10.816,0.184,11-4
		c4.84-7.809,11.222-3.782,21-9c8.385-4.474,10.586-11.402,17-11c9.966,0.625,17.303,14.302,23,23c-0.333,0-0.667,0-1,0
		c-1.188,12.813-15.355,12.645-22,20c-0.603,9.603,10.133,7.867,19,8c6.091,4.243,12.947,7.719,16,15
		c-15.408,12.339-48.311,3.783-53,25c-7.864-0.802-11.254-6.079-21-5c-4.083-0.322-6.569-2.438-10-3
		c-15.055-2.462-25.624,3.272-39,6c0,0.333,0,0.667,0,1c-16.852-6.639-32.201,4.745-54,2c-7.043-4.957-11.095-12.905-18-18
		c5.986-4.75,3.241-13.915,4-22c0.799-8.51,8.415-14.914,9-21c0.54-5.617-3.773-12.668-3-19c1.532-12.553,12.858-18.321,23-10
		c8.037-7.994,15.298-18.44,29-20c5.063-0.577,10.869,2.553,16,2c4.974-0.536,6.761-5.925,12-4
		C544.479-50.281,541.535-44.299,542-36z"/>
	
		<path id="Stonecold_Bay" fill-rule="evenodd" clip-rule="evenodd" fill="none" stroke="#FFFFFF" stroke-width="3" stroke-miterlimit="10" d="
		M826-34c0,2.333,0,4.667,0,7c-3.724,13.609-10.925,23.741-13,39c-5.249,5.417-12.817,8.516-17,15c0.601,7.497,2.861,12.158,0,19
		c-2,0-4,0-6,0c-3.254-2.413-6.703-4.631-6-11c-3.507,0.493-6.509,1.491-11,1c-5.392-6.575-6.513-21.223-16-25
		c-12.872-5.125-29.899,0.295-37,8c-7.344-3.99-14.284-8.382-27-7c-4.482-8.185-8.991-16.342-19-19
		c1.154-15.348-19.181-21.131-10-35c4.165-2.07,6.991,2.014,11,3c13.654-9.403,34.39-10.298,42,5c14.572-2.761,20.944-13.722,28-24
		c12.486,3.602,6.202,24.803-6,24c13.274,10.79,16.789-11.954,25-16c5.864,0.978,2.53,4.94,4,10c5.978-1.689,7.255-8.078,12-11
		c9.269-2.217,10.392,3.51,14,6C804.104-38.027,812.873-37.063,826-34z"/>
	
		<path id="Migratory_Area" fill-rule="evenodd" clip-rule="evenodd" fill="none" stroke="#FFFFFF" stroke-width="3" stroke-miterlimit="10" d="
		M633-12c10.104,3.714,26.085-3.339,32,10c3.596-1.071,6.552-2.781,9-5c10.009,2.658,14.518,10.815,19,19
		c12.716-1.382,19.656,3.01,27,7c7.101-7.705,24.128-13.125,37-8c9.487,3.777,10.608,18.425,16,25c4.491,0.491,7.493-0.507,11-1
		c-0.703,6.369,2.746,8.587,6,11c0.381,17.38-5.116,28.884-15,36c10.871,6.501,20.831,19.116,16,38c-9.837-4.071-16.958,5.756-26,7
		c-11.764,1.619-20.673-5.748-32-8c-7.92,0.206-10.836,9.981-19,11c-12.926,1.613-39.379-12.539-39-29c-8.663-9.076-15.564,0.7-26-1
		c-13.774-2.244-12.698-32.864-32-24c-9.144-5.855-17.76-12.24-25-20c4.689-21.217,37.592-12.661,53-25
		c-3.053-7.281-9.909-10.757-16-15c-8.867-0.133-19.603,1.603-19-8c6.645-7.355,20.813-7.187,22-20C632.333-12,632.667-12,633-12z"
		/>
	
		<path id="Canine_Basalt_Domain" fill-rule="evenodd" clip-rule="evenodd" fill="none" stroke="#FFFFFF" stroke-width="3" stroke-miterlimit="10" d="
		M450,39c6.905,5.095,10.957,13.043,18,18c21.799,2.745,37.148-8.639,54-2c-2.925,11.075-11.074,16.926-20,22
		c-17.08-9.399-36.063-2.13-36,17c5.538,7.866,18.619,1.097,27,0c-1.069,6.589-6.324,18.52,4,21c6.575,1.58,9.166-2.902,15-6
		c11.38,1.564,18.19-1.662,32-1c-4.651,15.752,6.797,31.553,19,37c6.452,9.721,3.38,14.996,0,26c-2.457,8-2.603,18.854-4,27
		c-2.883,16.814-0.354,30.182,4,48c5.049,4.879,14.556,6.074,21,2c0.54,4.966,1.86,12.043-3,14c-4.169-1.602-9.567,3.276-14,3
		c-4.388-0.273-9.792-3.517-16-6c-10.91-4.364-14.893-17.233-33-11c-5.764,1.984-16.311,7.836-27,3c-6.459-2.922-7.754-14.664-16-14
		c0-0.333,0-0.667,0-1c5.995-13.318-2.85-33.313-2-51c-9.446-8.1-22.301-4.612-32-9c-15.975-7.228-25.804-20.968-36-33
		c-3.948-21.619,9.106-27.884,14-41c1.853-4.965,1.11-10.127,3-14c2.97-6.088,9.852-9.168,13-15c6.18-11.447,5.05-26.655,14-34
		C449.333,39,449.667,39,450,39z"/>
	
		<path id="Ring_Rivers" fill-rule="evenodd" clip-rule="evenodd" fill="none" stroke="#FFFFFF" stroke-width="3" stroke-miterlimit="10" d="
		M475,236c0,0.333,0,0.667,0,1c8.246-0.664,9.541,11.078,16,14c10.689,4.836,21.236-1.016,27-3c18.107-6.233,22.09,6.636,33,11
		c6.208,2.483,11.612,5.727,16,6c4.433,0.276,9.831-4.602,14-3c0,0.667,0,1.333,0,2c1.283,3.05,5.991,2.676,6,7
		c-4.069,1.598-10.063,1.271-13,4c-2.396,8.813,4.17,16.194,4,26c-3.262,5.071-4.288,12.379-10,15c7.475,8.191,28.62,2.713,28,19
		c-10.421,4.579-27.154,2.846-36,9c3.333,3.864,2.293,13.901,0,18c-12.91,0.741-22.754,3.957-29-5c-5.413,3.355-12.569,0.389-20,3
		c-8.299,2.917-10.751,11.947-19,13c-12.596,1.607-24.489-4.322-32-18c4.066-2.931-2.335-4.524-2-8c0.469-4.859,5.74-7.067,8-12
		c4.507-1.826,12.353-0.314,17-2c3.756-6.377-0.069-11.155-4-15c1.984-8.124,1.449-15.568-2-21c-3.225-5.078-12.733-6.669-16-13
		c-4.747-9.199-4.336-13.099-13-20c-3.123-9.544-4.53-20.804-5-33C453.172,223.42,466.451,232.641,475,236z"/>
	
		<path id="Para-Arch_Area" fill-rule="evenodd" clip-rule="evenodd" fill="none" stroke="#FFFFFF" stroke-width="3" stroke-miterlimit="10" d="
		M460,355c7.511,13.678,19.404,19.607,32,18c8.249-1.053,10.701-10.083,19-13c7.431-2.611,14.587,0.355,20-3
		c6.246,8.957,16.09,5.741,29,5c16.5-0.381,34.034,6.545,39,21c20.636-10.777,29.613,31.516,9,32c0.204,3.129-0.674,7.341,1,9
		c-8.942,6.931-25.103,1.417-30-5c-1.602-3.731-6.109-4.558-9-7c-5.095,0.572-6.031,5.302-8,9c-7.053-0.7-11.888,6.013-18,8
		c-4.392,1.428-11.368,0.72-17,2c-4.497,1.022-8.444,3.807-12,4c-4.875,0.265-9.927-2.496-15-2c-5.993,0.585-10.964,5.624-17,5
		c-7.804-2.201-16.042-3.708-22-8c-4.615-3.326-5.986-9.398-9-12c-4.568-3.942-14.021-8.37-20-10c-5.309-1.448-13.911,1.074-19-4
		c-2.676-25.329,1.778-46.871,21-53C440.683,355.592,450.937,361.132,460,355z"/>
	
		<path id="Shattered_Lands" fill-rule="evenodd" clip-rule="evenodd" fill="none" stroke="#FFFFFF" stroke-width="3" stroke-miterlimit="10" d="
		M579,419c5.563,17.103-0.142,45.475,14,54c-7.005,10.135-14.304,28.908-32,32c-10.62,1.855-37.301,2.371-54,1
		c-21.895-1.797-28.379-12.238-34-28c5.858-5.475,12.865-9.802,23-11c5.243-12.36-5.401-23.134-13-29c6.036,0.624,11.007-4.415,17-5
		c5.073-0.496,10.125,2.265,15,2c3.556-0.193,7.503-2.978,12-4c5.632-1.28,12.608-0.572,17-2c6.112-1.987,10.947-8.7,18-8
		c1.969-3.698,2.905-8.428,8-9C572.891,414.442,577.398,415.269,579,419z"/>
</g>
</svg>
