<?xml version="1.0" encoding="utf-8"?>
<!-- Generator: Adobe Illustrator 15.0.2, SVG Export Plug-In . SVG Version: 6.00 Build 0)  -->
<!DOCTYPE svg PUBLIC "-//W3C//DTD SVG 1.1//EN" "http://www.w3.org/Graphics/SVG/1.1/DTD/svg11.dtd">
<svg version="1.1" id="Layer_1" xmlns="http://www.w3.org/2000/svg" xmlns:xlink="http://www.w3.org/1999/xlink" x="0px" y="0px"
	 width="1284px" height="1437px" viewBox="0 0 1284 1437" enable-background="new 0 0 1284 1437" xml:space="preserve">
<g>
	<path id="Northern_Seas" fill="none" stroke="#FFFFFF" stroke-width="6" d="M676,242c-3.255,1.171-10.939-0.757-17,0
		c-9.973-4.561-6.73-14.624-10-23c-2.839-7.273-12.164-9.768-17-17c-3.884-5.809-3.5-11.052-8-16c-19.787-3.239-41.003-7.109-61-3
		c-4.148,0.853-8.048,4.294-12,5c-3.239,0.579-6.884-0.848-10,0c-10.454,2.845-16.352,13.36-25,15c-8.912-2.24-19.721-1.322-21,7
		c-10.498-3.753-13.649,2.942-19,7c-10.531-8.907-24.523-14.403-38-25c-10.051-7.903-16.643-20.299-27-29
		c-4.933-4.144-11.533-5.916-16-10c-11.756-10.748-25.265-28.859-28-47c-4.178-27.713,11.23-54.8,37-52
		c12.07,1.312,34.147,20.058,42,27c8.336,7.37,12.505,17.751,20,25c7.379,7.136,17.62,8.224,24,13c6.783,5.079,8.986,13.399,17,16
		c12.703,4.122,29.692-1.398,42,1c8.664,1.688,16.508,10.452,28,3c5.679-3.683,2.915-8.216,11-17c8.094-8.794,35.045-15.566,49-4
		c4.558,3.778,8.099,14.679,12,23c8.143,17.368,13.386,30.248,19,47C673.328,203.899,691.092,227.441,676,242z"/>
	<path id="Uneven_Swamp_Area" fill="none" stroke="#FFFFFF" stroke-width="6" d="M495,210c5.486,3.693-2.013,15.324-2,23
		c4.029,2.971,7.679,6.321,9,12c10.106,0.773,17.161-1.506,27-1c3.386,3.638,9.108,6.405,13,11c4.838,5.713,12.157,18.287,12,26
		c-0.078,3.816-3.42,6.057-3,10c0.583,5.475,7.056,10.449,8,16c1.028,6.044-3.838,16.466-3,25c1.837,18.703,22.997,28.05,22,40
		c-0.641,7.682-12.169,14.405-14,21c-6.328,22.794,10.524,33.069,14,45c6.868,23.574-9.001,37.846-23,46
		c-7.831-0.502-11.373-5.293-17-8c-21.955,4.045-24.654,27.346-39,39c-19.173-2.84-27.495,5.172-36,13
		c-11.982,0.493-21.205-3.532-32-9c-7.597-3.848-14.548-11.237-21-11c-6.451,0.237-13.314,9.273-23,12
		c-3.635,1.023-8.712-0.096-12,1c-7.515,2.505-12.295,11.212-13,17c-16.945-8.721-34.579-16.754-42-35
		c-3.117,1.877-10.746,1.16-14,0c-2.58-7.357,1.457-15.328-9-15c-1.681-6.652-6.855-9.813-7-18c-37.163,1.504-47.012-36.23-44-74
		c1.761-22.081,11.526-65.642,24-77c8.755-7.972,26.118-11.701,34-11c5.686,0.505,11.824,5.228,18,8c6.343,2.848,14.038,4.152,19,7
		c13.93,7.994,20.452,23.648,28,38c21.451-5.204,51.7-3.652,64,9c9.382-3.041,19.871-11.554,32-13c4.212-0.502,8.747,1.271,13,1
		c17.95-1.142,37.25-13.171,40-29c0.969-5.58-1.375-15.474-1-24c0.907-20.639-3.164-29.368-14-38c-15.43-1.237-24.276-9.057-31-19
		c0.082-11.585,0.105-23.229,4-31C481.351,212.942,484.502,206.247,495,210z"/>
	<path id="Soaking_Savanna" fill="none" stroke="#FFFFFF" stroke-width="6" d="M297,488c10.457-0.328,6.42,7.643,9,15
		c3.254,1.16,10.883,1.877,14,0c7.421,18.246,25.055,26.279,42,35c0.139,10,10.795,15.026,12,25c1.168,9.669-5.672,20.174-3,31
		c1.197,4.849,7.28,9.84,8,15c0.938,6.721-3.939,13.296-2,20c1.27,4.392,5.86,5.92,9,9c-0.938,9.735,6.67,15.82,8,20
		c-4.825,18.509-38.51,8.157-45,25c2.821,12.227-10.835,11.969-12,23c1.754,6.084,8.508,4.704,12,8c17.852,16.854,0.898,47.401,3,74
		c6.653,7.384,15.145,16.136,14,25c-1.416,10.964-20.318,17.279-15,35c19.524-1.925,43.584,15.41,53-3c0.477-6.887-4.348-7.938-3-13
		c1.564-5.876,10.252-5.697,13-11c-0.296,2.63,3.88,0.787,3,4c4.001,18.938,5.23,43.106,12,60c4.205,10.492,14.391,19.02,19,32
		c2.352,6.624,1.54,14.633,7,20c0,1.667,0,3.333,0,5c-35.954,0.501-75.143,0.547-99-17c-5.9-4.339-13.107-15.705-20-17
		c-16.206-3.044-19.821,12.548-29,19c-19.46,13.679-60.863,17.104-88,23c-14.859,3.229-23.217,11.25-39,10
		c-20.622-1.633-40.348-9.967-58-22c-17.105-34.585-0.51-98.776,23-117c1.748-8.971-3.19-15.666-4-25
		c-2.718-31.319,18.423-59.491,7-86c-4.911-11.398-17.357-16.064-27-25c-10.024-9.288-10.255-21.341-16-34
		c-2.849-6.278-9.551-9.832-12-15c-9.062-19.121,3.674-40.499-4-62c-3.856-10.804-15.559-19.061-16-35
		c-0.576-20.795,16.362-25.481,22-42c13.712-11.955,32.251-19.082,44-33c2.222-22.136-5.435-42.633,4-57
		c8.315-12.662,38.562-15.696,52-5c4.365,3.474,5.919,10.688,10,16c3.267,4.252,10.149,7.439,15,13c5.182,5.94,7.753,13.983,12,20
		C246.671,471.787,268.435,481.806,297,488z"/>
	<path id="Arch_House_Area" fill="none" stroke="#FFFFFF" stroke-width="6" d="M555,484c19.573,15.427,37.331,32.669,47,58
		c2.296,5.49,4.232,7.336,4,12c-0.439,8.809-11,14.911-11,23c0,13.953,15.877,14.44,18,29c3.331,10.32-5.236,17.723-9,28
		c-5.368,14.658-17.54,30.489-14,52c0.651,3.958,6.833,9.585,7,16c0.305,11.708-10.629,14.878-20,19c-7.54,3.316-15.946,6.345-24,10
		c-4.878,2.214-8.813,6.631-14,9c-33.828,15.448-75.692,19.083-96,47c-2.767,13.73,12.884,18.771,10,29
		c-2.843,10.082-21.907,6.591-36,9c0.88-3.213-3.296-1.37-3-4c-2.748,5.303-11.436,5.124-13,11c-1.348,5.063,3.477,6.113,3,13
		c-9.416,18.41-33.476,1.075-53,3c-5.318-17.721,13.584-24.036,15-35c1.145-8.864-7.347-17.616-14-25
		c-2.102-26.599,14.852-57.146-3-74c-3.492-3.296-10.246-1.916-12-8c1.165-11.031,14.821-10.773,12-23
		c6.49-16.843,40.175-6.491,45-25c-1.33-4.18-8.938-10.265-8-20c-3.14-3.08-7.73-4.608-9-9c-1.939-6.704,2.938-13.279,2-20
		c-0.72-5.16-6.803-10.151-8-15c-2.672-10.826,4.168-21.331,3-31c-1.205-9.974-11.861-15-12-25c0.705-5.788,5.485-14.495,13-17
		c3.288-1.096,8.365,0.023,12-1c9.686-2.727,16.549-11.763,23-12c6.452-0.237,13.403,7.152,21,11c10.795,5.468,20.018,9.493,32,9
		c8.505-7.828,16.827-15.84,36-13c14.346-11.654,17.045-34.955,39-39C543.627,478.707,547.169,483.498,555,484z"/>
	<path id="Ring_Rivers" fill="none" stroke="#FFFFFF" stroke-width="6" d="M950,603c5.258,3.484,13.196,5.895,17,10
		c5.453,5.886,4.947,12.779,13,17c10.706,5.612,21.492,3.289,40,5c11.475-6.561,35.765-18.873,48-9c3.602,7.584,5.776,22.666,10,33
		c1.944,4.757,7.157,11.702,7,16c-0.473,12.941-18.713,21.994-21,40c-1.855,14.617,3.999,30.013,14,35
		c13.925,35.127,11.068,83.285-17,94c-0.891-0.776-2.258-1.075-4-1c-7.724,8.844-24.172,3.406-37,8c-12.9,4.62-18.813,23.482-39,25
		c-26.178,1.968-51.416-13.8-62-36c-1.229-5.179,3.507-2.842,4-4c0.799-6.133-6.349-4.318-7-9c0.216-14.784,11.229-18.771,17-28
		c31.363,7.301,46.759-15.466,25-32c3.121-16.514,3.115-33.875-5-45c-6.409-8.786-16.447-8.011-24-15
		c-6.142-5.683-6.291-12.799-11-23c-5-10.832-14.403-17.076-23-24c0-0.667,0-1.333,0-2c-5.963-18.703-8.104-41.231-10-64
		C902.723,575.545,934.292,594.819,950,603z"/>
	<path id="Wooded_Lands" fill-rule="evenodd" clip-rule="evenodd" fill="none" stroke="#FFFFFF" stroke-width="6" d="M834,641
		c18.406,11.849,48.303,1.234,61,17c0,0.667,0,1.333,0,2c8.597,6.924,18,13.168,23,24c4.709,10.201,4.858,17.317,11,23
		c7.553,6.989,17.591,6.214,24,15c8.115,11.125,8.121,28.485,5,45c21.759,16.534,6.363,39.301-25,32
		c-5.771,9.229-16.784,13.216-17,28c0.651,4.682,7.799,2.867,7,9c-0.493,1.158-5.228-1.179-4,4c-17.042,11.612-38.394,2.349-50-8
		c-9.71,1.073-14.823,10.104-22,8c-7.121,4.565-6.459,11.597-10,22c-3.125,9.184-11.686,17.206-13,24
		c-3.408,17.617,5.648,32.781,1,52c-18.23,1.423-31.225-12.308-51-9c-1.812,6.234-0.664,12.79-5,20c-4.868,2.466-12.822,1.844-17,5
		c-15.174-8.021-24.628-28.632-48-23c-5.229,1.26-6.683,8.621-11,11c-11.367,6.264-34.885-1.13-52,4c-6.139,1.84-10.421,8.957-16,11
		c-16.502,6.043-37.93-3.679-55,0c-5.945,12.388-12.596,16.001-25,25c-11.487,8.334-15.867,12.569-33,14
		c-13.146,1.098-26.49,8.451-33,7c-13.907-3.101-8.796-26.328-11-41c-1.63-10.85-7.658-19.387-13-25c-5.46-5.367-4.648-13.376-7-20
		c-4.609-12.98-14.795-21.508-19-32c-6.77-16.894-7.999-41.063-12-60c14.093-2.409,33.157,1.082,36-9
		c2.884-10.229-12.767-15.27-10-29c20.308-27.917,62.172-31.552,96-47c5.188-2.369,9.122-6.786,14-9c8.054-3.655,16.46-6.684,24-10
		c9.371-4.122,20.305-7.292,20-19c-0.167-6.415-6.349-12.042-7-16c-3.54-21.511,8.632-37.342,14-52c3.764-10.277,12.331-17.68,9-28
		c18.487-4.022,38.279,3.787,56,2c5.155-0.52,10.094-3.367,15-3c8.41,0.63,15.051,7.813,23,7c6.242,8.425,13.061,16.272,18,26
		C756.563,647.329,803.174,637.854,834,641z"/>
	<path id="Para-Arch_Area" fill="none" stroke="#FFFFFF" stroke-width="6" d="M919,840c10.584,22.2,35.822,37.968,62,36
		c20.188-1.518,26.1-20.38,39-25c12.828-4.594,29.276,0.844,37-8c1.742-0.075,3.109,0.224,4,1c7.306,16.803,4.37,38.115,17,49
		c8.105,6.986,22.558,8.726,32,16c11.627,8.957,23.93,20.995,23,39c-1.927,11.205-7.235,24.244-16,30
		c-13.555,8.901-35.538,8.127-60,13c-7.955,1.585-21.229,8-30,8c-8.292,0-15.241-3.925-22-4c-16.145-0.18-21.946,11.052-39,11
		c-25.058-4.814-51.549-16.3-62-39c-11.895-5.771-22.662-12.671-36-17c-3.547-1.356-1.584-2.014-3-5c-14.026,1.55-31.472,0.049-40-7
		c4.648-19.219-4.408-34.383-1-52c1.314-6.794,9.875-14.816,13-24c3.541-10.403,2.879-17.435,10-22c7.177,2.104,12.29-6.927,22-8
		C880.606,842.349,901.958,851.612,919,840z"/>
	<path id="Bastion_Area" fill="none" stroke="#FFFFFF" stroke-width="6" d="M825,938c8.528,7.049,25.974,8.55,40,7
		c1.416,2.986-0.547,3.644,3,5c13.338,4.329,24.105,11.229,36,17c10.451,22.7,36.942,34.186,62,39c14.382,9.952,23.89,24.777,30,43
		c-0.151,18.849-18.855,19.145-35,22c-4.213,6.001-8.736,12.83-15,14c-15.482,2.186-26.286,9.047-32,21
		c-16.64-4.639-34.268,10.109-34,23c0.11,5.319,6.598,9.768,7,15c1.311,17.037-29.45,29.227-33,54c-0.935,6.524,0.871,12.805-1,19
		c-2.049,6.785-7.938,15.279-11,19c-11.365,13.805-28.857,13.696-43,21c-9.375,4.842-13.72,22.084-27,16
		c-6.366-6.766-5.524-22.462-3-33c-10.401-6.211-11.271-16.334-20-24c-8.597-7.55-22.284-9.011-30-17
		c-8.492-8.793-16.105-37.625-15-52c1.044-13.588,14.328-17.692,20-28c4.302-7.818,6.779-22.786,5-35
		c-9.165-9.539-26.221-11.7-31-25c-2.967-8.256-4.079-26.371,0-38c3.241-9.24,16.756-17.117,25-23
		c16.794-11.985,29.907-19.622,29-44c4.178-3.156,12.132-2.534,17-5c3.122-7.01,4.813-12.335,4-19
		C791.817,923.902,806.771,939.94,825,938z"/>
	<path id="Shattered_Lands" fill="none" stroke="#FFFFFF" stroke-width="6" d="M1133,948c6.617,1.716,11.125,5.541,17,8
		c14.419,16.964,12.68,54.85,17,88c0.842,6.462,3.445,12.789,4,18c2.849,26.748-4.747,43.691-15,57
		c-12.489,16.211-33.317,22.212-60,21c-27.638-1.256-57.317,5.52-80,3c-40.809-4.531-60.686-22.105-70-58
		c6.264-1.17,10.787-7.999,15-14c16.145-2.855,34.849-3.151,35-22c-6.11-18.223-15.618-33.048-30-43
		c17.054,0.052,22.855-11.18,39-11c6.759,0.075,13.708,4,22,4c8.771,0,22.045-6.415,30-8c24.462-4.873,46.445-4.099,60-13
		C1125.765,972.244,1131.073,959.205,1133,948z"/>
	<path id="Beep_Beep_Sheep_Area" fill="none" stroke="#FFFFFF" stroke-width="6" d="M486,1161c8.605-6.634,4.249-25.758,1-35
		c-9.573-7.042-13.994-23.206-25-23c-6.469-6.048,5.207-20.787,13-22c19.836-3.086,33.222,15.475,49,21
		c17.043,5.968,37.446,4.725,55,9c20.564,5.008,38.087,9.915,52,12c13.706,17.844,2.547,38.335,14,53
		c10.146,12.991,30.22,20.563,35,34c2.693,7.572,3.985,23.354,1,31c-5.706,14.618-50.405,21.903-71,22
		c-33.099,0.156-49.859-10.526-64-32c-4.241-6.439-5.916-15.609-10-23c-5.97-10.802-15.675-18.597-17-34
		C510.403,1167.264,497.843,1164.49,486,1161z"/>
	<path id="Matchstick_Forest" fill="none" stroke="#FFFFFF" stroke-width="6" d="M462,1103c11.006-0.206,15.427,15.958,25,23
		c3.249,9.242,7.605,28.366-1,35c-9.597,17.181-30.088,22.683-31,43c-0.392,8.724,6.998,19.96,8,32c0.465,5.586-0.612,11.721,0,17
		c3.353,28.901,19.582,59.563,9,85c-6.442,15.485-25.246,25.229-38,36c-9.332,7.882-17.392,14.145-33,15
		c-10.448,0.572-24.218-0.784-35-3c-5.027-1.033-9.747-4.783-15-6c-4.757-1.102-9.806,0.166-14-1c-6.071-1.688-15.145-6.583-19-9
		c-6.265-3.928-10.39-14.256-18-17c-13.673-4.931-32.925,4.02-48-4c-14.719-7.831-5.205-32.014-17-44
		c-14.471-14.705-36.525,5.535-50,7c-13.459,1.464-32.706-8.645-35-22c-2.486-14.479,5.183-27.026,13-33
		c10.701-8.177,28.614-5.531,36-17c1.784-2.77,0.973-7.243,3-11c2.445-4.532,8.19-8.152,11-13c2.945-5.08,6.629-10.88,8-15
		c3.008-9.04,2.65-18.18,6-24c5.119-8.893,19.593-13.677,23-21c6.744-14.496,1.96-45.729,29-40c10.504,2.226,18.895,28.021,27,34
		c13.682-0.163,19.704,13.006,32,15c10.993,1.782,24.025-4.042,35-6c10.648-1.899,25.889-4.701,29-11c2.333-4.725-1.164-10.855,0-16
		C406.64,1111.486,441.848,1110.097,462,1103z"/>
	<path id="Canine_Basalt_Domain" fill-rule="evenodd" clip-rule="evenodd" fill="none" stroke="#FFFFFF" stroke-width="6" d="
		M899.5,209.5c17.906,6.75,21.036,31.597,39,36c12.054,2.955,27.998-1.621,41-3c23.628-2.507,40.985-10.988,63-3
		c0.443,0.89,0.878,1.789,2,2c-5.472,15.458-15.221,26.565-29,36c-4.109,2.813-7.767,6.684-11,7c-5.266,0.516-7.662-3.346-13-5
		c-11.046-3.424-24.149-4.131-37-2c-6.923,11.617-28.894,22.927-23,41c5.647,17.318,39.797,1.01,55,1
		c-1.584,10.655-10.165,24.971-1,37c13.46,11.166,29.038-0.327,38-8c20.456,0.042,41.674,1.04,66-1c11.418-0.958,37.949-16.04,39-25
		c0.907-7.738-5.621-14.057-6-21c-0.279-5.113,0.195-15.088,2-21c2.413-7.905,12.279-12.69,15-21c3.066-9.367-0.355-15.692,3-27
		c23.607-0.274,33.812,12.855,57,13c9.982,11.351,23.244,19.423,30,34c-2.836,48.693-0.627,83.816-18,114
		c-15.651,27.192-50.063,36.623-53,73c-18.298,6.03-48.211,5.616-56,20c-2.9,5.355-1.334,11.661-3,16
		c-5.799,15.106-28.149,27.416-45,14c-4.836,23.52-8.974,51.866-6,80c6.599-1.068,11.773-3.56,20-3c8.38,7.087,4.29,24.557,0,33
		c-7.279-7.153-19.43-3.379-33,1c-6.984,2.254-11.756,8.165-17,9c-7.313,1.165-33.511-2.77-38-5c-7.464-3.708-9.657-15.45-17-21
		c-3.744-2.83-10.533-3.051-13-7c0.916-4.721,4.332-8.879,5-14c1.432-10.966-4.384-18.585-6-29c-1.509-9.724,0.762-19.453,0-29
		c-0.809-10.144-1.523-27.021-5-33c-5.245-9.021-25.76-7.424-36-9c-20.746-3.192-50.526-19.302-63-31c-4.674-4.384-6.483-10.3-10-14
		c-8.757-9.213-19.656-14.28-26-29c1.292-13.985-0.902-27.422,3-41c3.713-12.918,19.4-23.835,25-41c1.791-5.489,1.354-11.632,3-17
		c5.027-16.399,18.193-24.386,26-35c7.845-10.666,6.653-23.362,11-38c3.678-12.385,15.226-21.846,21-34
		C898.833,209.5,899.167,209.5,899.5,209.5z"/>
	<path id="Loop_River_Wetlands" fill-rule="evenodd" clip-rule="evenodd" fill="none" stroke="#FFFFFF" stroke-width="6" d="
		M1142.5,232.5c-3.355,11.308,0.066,17.633-3,27c-2.721,8.31-12.587,13.095-15,21c-1.805,5.912-2.279,15.887-2,21
		c0.379,6.943,6.907,13.262,6,21c-1.051,8.96-27.582,24.042-39,25c-24.326,2.04-45.544,1.042-66,1c-8.962,7.673-24.54,19.166-38,8
		c-9.165-12.029-0.584-26.345,1-37c-15.203,0.01-49.353,16.318-55-1c-5.894-18.073,16.077-29.383,23-41
		c12.851-2.131,25.954-1.424,37,2c5.338,1.654,7.734,5.516,13,5c3.233-0.316,6.891-4.187,11-7c13.779-9.435,23.528-20.542,29-36
		c-1.122-0.211-1.557-1.11-2-2c23.27,2.285,26.483-13.007,46-14C1107.149,224.552,1128.476,228.767,1142.5,232.5z"/>
	
		<path id="Bunflower_Domain" fill-rule="evenodd" clip-rule="evenodd" fill="none" stroke="#FFFFFF" stroke-width="6" stroke-miterlimit="10" d="
		M1199,245c-23.188-0.145-33.393-13.274-57-13c-14.024-3.733-35.351-7.948-54-7c-19.517,0.993-22.73,16.285-46,14
		c-18.881-7.595-32.565-1.078-49,2c-8.404,1.574-17.936,2.161-26,3c-8.759,0.912-20.783,3.014-29,1
		c-17.964-4.403-21.094-29.25-39-36c3.043-8.854,10.61-14.857,11-27c0.141-4.372-1.979-7.956-2-13c-0.036-8.394,3.63-19.866,7-27
		c3.438-7.276,9.387-11.402,10-18c0.99-10.643-7.754-27.538-5-43c0.671-3.769,6.646-18.006,10-21c7.359-6.568,28.831-5.131,35,7
		c9.36-15.687,23.568-28.112,44-37c5.131-2.232,10.158-5.535,14-6c10.933-1.325,23.029,5.611,33,4c7.868-1.271,13.198-10.656,22-7
		c9.089,3.776,7.118,18.469,4,26c-23.585,11.082-48.877,20.457-68,36c2.224,23.443,33.873,17.46,59,18
		c4.714,10.014,10.184,15.166,8,26c-1.704,8.454-13.02,12.953-14,20c-0.918,6.598,2.293,13.699,8,18
		c10.249-0.095,14.723-9.553,21-16c2.574-2.644,6.576-4.083,9-7c4.743-5.707,6.225-13.148,12-18c22.109-18.574,69.977-18.096,85,8
		c9.675,2.659,21.716,2.951,29,8c2.892,15.678-0.457,33.037,1,47c0.305,2.917,2.245,7.199,2,10c-1.466,16.743-18.16,23.231-28,32
		C1209.08,233.911,1206.589,242.905,1199,245z"/>
	<path id="Fox_Forest_Area" fill-rule="evenodd" clip-rule="evenodd" fill="none" stroke="#FFFFFF" stroke-width="6" d="
		M677.5,242.5c10.005,1.328,17.376,5.291,26,8c4.603,15.295,26.056,29.468,22,49c-2.363,11.38-17.954,14.921-27,22
		c-0.703,12.704,3.578,20.421,10,26c-2.109,9.373-12.837,11.577-18,21c-5.879,10.73-6.521,22.975-19,27
		c-11.889,0.379-22.363-0.878-25,7c-3.037,9.074,8.031,25.676,5,38c1.466,4.946,6.163,4.348,9,8c5.51,7.093,4.752,19.261,15,22
		c23.358-2.1,41.748,8.459,42,23c0.447,25.801-74.349,27.399-50,56c-8.213-1.212-11.355,2.645-16,5
		c-9.367-9.848-31.925-19.515-49-12c-9.939-24.395-26.846-41.82-46-57c12.454-8.894,28.665-24.724,22-47
		c-1.869-6.246-7.88-10.286-12-16c-0.845-9.514-5.176-17.983-2-29c2.895-10.041,13.534-14.305,14-21c0.453-6.503-9.193-13.592-13-19
		c-3.981-5.656-8.59-15.386-9-22c-0.626-10.105,4.511-17.66,3-25c-1.146-5.566-12.102-11.441-8-21c0.915-2.132,2.883,0.061,3-3
		c0.291-7.614-6.854-21.038-12-27c-3.959-4.588-10.203-7.575-14-11c-9.561-2.156-16.667,3.92-23,2c-6.158-1.868-5.688-10.378-12-13
		c-0.339-7.096,7.764-19.179,2-22c1.296-9.515,12.046-9.764,22-8c22.35-18.982,68.656-26.173,107-17c5.053,5.169,4.261,11.798,9,18
		c5.173,6.77,13.299,8.381,16,16c3.022,8.528,0.253,17.639,10,22C666.263,241.761,673.313,243.714,677.5,242.5z"/>
	<path id="Spawn_Archipelago" fill-rule="evenodd" clip-rule="evenodd" fill="none" stroke="#FFFFFF" stroke-width="6" d="
		M834.5,641.5c-30.741-2.918-78.479,6.353-110-3c-3.538-10.795-11.518-17.149-17-26c-9.199-0.801-15.766-4.234-23-7
		c-22.159,8.208-46.184-2.195-71,1c-2.622-15.36-17.419-13.428-18-28c-0.5-12.52,19.479-20.761,7-36
		c17.075-7.515,39.633,2.152,49,12c4.645-2.355,7.787-6.212,16-5c-24.349-28.601,50.447-30.199,50-56
		c-0.252-14.541-18.642-25.1-42-23c-10.248-2.739-9.49-14.907-15-22c-2.837-3.652-7.534-3.054-9-8c3.031-12.324-8.037-28.926-5-38
		c2.637-7.878,13.111-6.621,25-7c7.223,5.134,21.144,8.409,32,4c-2.088-35.368,51.725-21.163,47,4c8.58,13.89,20.419,22.424,35,32
		c8.189,5.378,18.388,7.946,27,14c33.004,23.199,37.524,111.123,18,151c-3.765,0.568-5.274,3.393-7,6
		C823.546,621.788,827.563,633.103,834.5,641.5z"/>
</g>
</svg>
